{
    "asset" : {
        "generator" : "Khronos glTF Blender I/O v1.6.16",
        "version" : "2.0"
    },
    "scene" : 0,
    "scenes" : [
        {
            "name" : "Scene",
            "nodes" : [
                0,
                1,
                2,
                3
            ]
        }
    ],
    "nodes" : [
        {
            "mesh" : 0,
            "name" : "jolka s igruskami.001",
            "rotation" : [
                0.7071068286895752,
                0,
                0,
                0.7071067094802856
            ],
            "scale" : [
                1,
                1,
                1.3989776372909546
            ],
            "translation" : [
                0,
                29.854066848754883,
                0
            ]
        },
        {
            "mesh" : 1,
            "name" : "jolka s igruskami.002",
            "rotation" : [
                -0.5928553342819214,
                -0.3853864073753357,
                0.38538646697998047,
                -0.5928552746772766
            ],
            "scale" : [
                1.1230792999267578,
                1.1230792999267578,
                1.281460165977478
            ],
            "translation" : [
                0,
                37.34141159057617,
                0
            ]
        },
        {
            "mesh" : 2,
            "name" : "jolka s igruskami.003",
            "rotation" : [
                -0.46087580919265747,
                -0.5362774133682251,
                0.5362774729728699,
                -0.4608757495880127
            ],
            "scale" : [
                0.9373295903205872,
                0.9373295903205872,
                0.956303596496582
            ],
            "translation" : [
                0,
                65.68150329589844,
                0
            ]
        },
        {
            "mesh" : 3,
            "name" : "jolka s igruskami.004",
            "rotation" : [
                -0.3482488691806793,
                0.6154045462608337,
                -0.6154046654701233,
                -0.34824880957603455
            ],
            "scale" : [
                0.5093352794647217,
                0.5093352794647217,
                1.3218953609466553
            ],
            "translation" : [
                0,
                34.83598709106445,
                0
            ]
        }
    ],
    "animations" : [
        {
            "channels" : [
                {
                    "sampler" : 0,
                    "target" : {
                        "node" : 1,
                        "path" : "rotation"
                    }
                }
            ],
            "name" : "jolka s igruskami.002Action",
            "samplers" : [
                {
                    "input" : 27,
                    "interpolation" : "LINEAR",
                    "output" : 28
                }
            ]
        },
        {
            "channels" : [
                {
                    "sampler" : 0,
                    "target" : {
                        "node" : 2,
                        "path" : "rotation"
                    }
                }
            ],
            "name" : "jolka s igruskami.003Action",
            "samplers" : [
                {
                    "input" : 27,
                    "interpolation" : "LINEAR",
                    "output" : 29
                }
            ]
        },
        {
            "channels" : [
                {
                    "sampler" : 0,
                    "target" : {
                        "node" : 3,
                        "path" : "rotation"
                    }
                }
            ],
            "name" : "jolka s igruskami.004Action",
            "samplers" : [
                {
                    "input" : 27,
                    "interpolation" : "LINEAR",
                    "output" : 30
                }
            ]
        }
    ],
    "materials" : [
        {
            "doubleSided" : true,
            "name" : "wire_006134006",
            "pbrMetallicRoughness" : {
                "baseColorFactor" : [
                    0.0206251610070467,
                    0.4612140655517578,
                    0.0206251610070467,
                    1
                ],
                "metallicFactor" : 0,
                "roughnessFactor" : 0.8114382028579712
            }
        },
        {
            "doubleSided" : true,
            "name" : "Yelow",
            "pbrMetallicRoughness" : {
                "baseColorFactor" : [
                    0.23317427933216095,
                    0.3642842769622803,
                    0,
                    1
                ],
                "metallicFactor" : 0,
                "roughnessFactor" : 0.4000000059604645
            }
        },
        {
            "doubleSided" : true,
            "name" : "Wako",
            "pbrMetallicRoughness" : {
                "baseColorFactor" : [
                    0,
                    0.1826416552066803,
                    0,
                    1
                ],
                "metallicFactor" : 0,
                "roughnessFactor" : 0.8114382028579712
            }
        },
        {
            "doubleSided" : true,
            "name" : "wire_087224087",
            "pbrMetallicRoughness" : {
                "baseColorFactor" : [
                    0.23021851480007172,
                    0.5926847457885742,
                    0.23021851480007172,
                    1
                ],
                "metallicFactor" : 0,
                "roughnessFactor" : 0.8114382028579712
            }
        }
    ],
    "meshes" : [
        {
            "name" : "jolka s igruskami.001",
            "primitives" : [
                {
                    "attributes" : {
                        "POSITION" : 0,
                        "NORMAL" : 1,
                        "TEXCOORD_0" : 2
                    },
                    "indices" : 3,
                    "material" : 0
                },
                {
                    "attributes" : {
                        "POSITION" : 4,
                        "NORMAL" : 5,
                        "TEXCOORD_0" : 6
                    },
                    "indices" : 7,
                    "material" : 0
                }
            ]
        },
        {
            "name" : "jolka s igruskami.002",
            "primitives" : [
                {
                    "attributes" : {
                        "POSITION" : 8,
                        "NORMAL" : 9,
                        "TEXCOORD_0" : 10
                    },
                    "indices" : 3,
                    "material" : 1
                },
                {
                    "attributes" : {
                        "POSITION" : 11,
                        "NORMAL" : 12,
                        "TEXCOORD_0" : 13
                    },
                    "indices" : 14,
                    "material" : 1
                }
            ]
        },
        {
            "name" : "jolka s igruskami.003",
            "primitives" : [
                {
                    "attributes" : {
                        "POSITION" : 15,
                        "NORMAL" : 16,
                        "TEXCOORD_0" : 17
                    },
                    "indices" : 3,
                    "material" : 2
                },
                {
                    "attributes" : {
                        "POSITION" : 18,
                        "NORMAL" : 19,
                        "TEXCOORD_0" : 20
                    },
                    "indices" : 14,
                    "material" : 2
                }
            ]
        },
        {
            "name" : "jolka s igruskami.004",
            "primitives" : [
                {
                    "attributes" : {
                        "POSITION" : 21,
                        "NORMAL" : 22,
                        "TEXCOORD_0" : 23
                    },
                    "indices" : 3,
                    "material" : 3
                },
                {
                    "attributes" : {
                        "POSITION" : 24,
                        "NORMAL" : 25,
                        "TEXCOORD_0" : 26
                    },
                    "indices" : 14,
                    "material" : 3
                }
            ]
        }
    ],
    "accessors" : [
        {
            "bufferView" : 0,
            "componentType" : 5126,
            "count" : 216,
            "max" : [
                25.348154067993164,
                25.97018051147461,
                -13.730600357055664
            ],
            "min" : [
                -22.254047393798828,
                -21.680021286010742,
                -67.18710327148438
            ],
            "type" : "VEC3"
        },
        {
            "bufferView" : 1,
            "componentType" : 5126,
            "count" : 216,
            "type" : "VEC3"
        },
        {
            "bufferView" : 2,
            "componentType" : 5126,
            "count" : 216,
            "type" : "VEC2"
        },
        {
            "bufferView" : 3,
            "componentType" : 5123,
            "count" : 216,
            "type" : "SCALAR"
        },
        {
            "bufferView" : 4,
            "componentType" : 5126,
            "count" : 6521,
            "max" : [
                31.201053619384766,
                32.46187973022461,
                -0.3734999895095825
            ],
            "min" : [
                -30.915447235107422,
                -29.7556209564209,
                -81.83560180664062
            ],
            "type" : "VEC3"
        },
        {
            "bufferView" : 5,
            "componentType" : 5126,
            "count" : 6521,
            "type" : "VEC3"
        },
        {
            "bufferView" : 6,
            "componentType" : 5126,
            "count" : 6521,
            "type" : "VEC2"
        },
        {
            "bufferView" : 7,
            "componentType" : 5123,
            "count" : 9594,
            "type" : "SCALAR"
        },
        {
            "bufferView" : 8,
            "componentType" : 5126,
            "count" : 216,
            "max" : [
                25.348154067993164,
                25.97018051147461,
                -13.730600357055664
            ],
            "min" : [
                -22.254047393798828,
                -21.680021286010742,
                -67.18710327148438
            ],
            "type" : "VEC3"
        },
        {
            "bufferView" : 9,
            "componentType" : 5126,
            "count" : 216,
            "type" : "VEC3"
        },
        {
            "bufferView" : 10,
            "componentType" : 5126,
            "count" : 216,
            "type" : "VEC2"
        },
        {
            "bufferView" : 11,
            "componentType" : 5126,
            "count" : 3603,
            "max" : [
                28.585453033447266,
                29.434978485107422,
                -3.298099994659424
            ],
            "min" : [
                -28.901947021484375,
                -27.27202033996582,
                -81.83560180664062
            ],
            "type" : "VEC3"
        },
        {
            "bufferView" : 12,
            "componentType" : 5126,
            "count" : 3603,
            "type" : "VEC3"
        },
        {
            "bufferView" : 13,
            "componentType" : 5126,
            "count" : 3603,
            "type" : "VEC2"
        },
        {
            "bufferView" : 14,
            "componentType" : 5123,
            "count" : 4860,
            "type" : "SCALAR"
        },
        {
            "bufferView" : 15,
            "componentType" : 5126,
            "count" : 216,
            "max" : [
                25.348154067993164,
                25.97018051147461,
                -13.730600357055664
            ],
            "min" : [
                -22.254047393798828,
                -21.680021286010742,
                -67.18710327148438
            ],
            "type" : "VEC3"
        },
        {
            "bufferView" : 16,
            "componentType" : 5126,
            "count" : 216,
            "type" : "VEC3"
        },
        {
            "bufferView" : 17,
            "componentType" : 5126,
            "count" : 216,
            "type" : "VEC2"
        },
        {
            "bufferView" : 18,
            "componentType" : 5126,
            "count" : 3603,
            "max" : [
                28.585453033447266,
                29.434978485107422,
                -3.298099994659424
            ],
            "min" : [
                -28.901947021484375,
                -27.27202033996582,
                -81.83560180664062
            ],
            "type" : "VEC3"
        },
        {
            "bufferView" : 19,
            "componentType" : 5126,
            "count" : 3603,
            "type" : "VEC3"
        },
        {
            "bufferView" : 20,
            "componentType" : 5126,
            "count" : 3603,
            "type" : "VEC2"
        },
        {
            "bufferView" : 21,
            "componentType" : 5126,
            "count" : 216,
            "max" : [
                25.348154067993164,
                25.97018051147461,
                -13.730600357055664
            ],
            "min" : [
                -22.254047393798828,
                -21.680021286010742,
                -67.18710327148438
            ],
            "type" : "VEC3"
        },
        {
            "bufferView" : 22,
            "componentType" : 5126,
            "count" : 216,
            "type" : "VEC3"
        },
        {
            "bufferView" : 23,
            "componentType" : 5126,
            "count" : 216,
            "type" : "VEC2"
        },
        {
            "bufferView" : 24,
            "componentType" : 5126,
            "count" : 3603,
            "max" : [
                28.585453033447266,
                29.434978485107422,
                -3.298099994659424
            ],
            "min" : [
                -28.901947021484375,
                -27.27202033996582,
                -81.83560180664062
            ],
            "type" : "VEC3"
        },
        {
            "bufferView" : 25,
            "componentType" : 5126,
            "count" : 3603,
            "type" : "VEC3"
        },
        {
            "bufferView" : 26,
            "componentType" : 5126,
            "count" : 3603,
            "type" : "VEC2"
        },
        {
            "bufferView" : 27,
            "componentType" : 5126,
            "count" : 151,
            "max" : [
                6.25
            ],
            "min" : [
                0
            ],
            "type" : "SCALAR"
        },
        {
            "bufferView" : 28,
            "componentType" : 5126,
            "count" : 151,
            "type" : "VEC4"
        },
        {
            "bufferView" : 29,
            "componentType" : 5126,
            "count" : 151,
            "type" : "VEC4"
        },
        {
            "bufferView" : 30,
            "componentType" : 5126,
            "count" : 151,
            "type" : "VEC4"
        }
    ],
    "bufferViews" : [
        {
            "buffer" : 0,
            "byteLength" : 2592,
            "byteOffset" : 0
        },
        {
            "buffer" : 0,
            "byteLength" : 2592,
            "byteOffset" : 2592
        },
        {
            "buffer" : 0,
            "byteLength" : 1728,
            "byteOffset" : 5184
        },
        {
            "buffer" : 0,
            "byteLength" : 432,
            "byteOffset" : 6912
        },
        {
            "buffer" : 0,
            "byteLength" : 78252,
            "byteOffset" : 7344
        },
        {
            "buffer" : 0,
            "byteLength" : 78252,
            "byteOffset" : 85596
        },
        {
            "buffer" : 0,
            "byteLength" : 52168,
            "byteOffset" : 163848
        },
        {
            "buffer" : 0,
            "byteLength" : 19188,
            "byteOffset" : 216016
        },
        {
            "buffer" : 0,
            "byteLength" : 2592,
            "byteOffset" : 235204
        },
        {
            "buffer" : 0,
            "byteLength" : 2592,
            "byteOffset" : 237796
        },
        {
            "buffer" : 0,
            "byteLength" : 1728,
            "byteOffset" : 240388
        },
        {
            "buffer" : 0,
            "byteLength" : 43236,
            "byteOffset" : 242116
        },
        {
            "buffer" : 0,
            "byteLength" : 43236,
            "byteOffset" : 285352
        },
        {
            "buffer" : 0,
            "byteLength" : 28824,
            "byteOffset" : 328588
        },
        {
            "buffer" : 0,
            "byteLength" : 9720,
            "byteOffset" : 357412
        },
        {
            "buffer" : 0,
            "byteLength" : 2592,
            "byteOffset" : 367132
        },
        {
            "buffer" : 0,
            "byteLength" : 2592,
            "byteOffset" : 369724
        },
        {
            "buffer" : 0,
            "byteLength" : 1728,
            "byteOffset" : 372316
        },
        {
            "buffer" : 0,
            "byteLength" : 43236,
            "byteOffset" : 374044
        },
        {
            "buffer" : 0,
            "byteLength" : 43236,
            "byteOffset" : 417280
        },
        {
            "buffer" : 0,
            "byteLength" : 28824,
            "byteOffset" : 460516
        },
        {
            "buffer" : 0,
            "byteLength" : 2592,
            "byteOffset" : 489340
        },
        {
            "buffer" : 0,
            "byteLength" : 2592,
            "byteOffset" : 491932
        },
        {
            "buffer" : 0,
            "byteLength" : 1728,
            "byteOffset" : 494524
        },
        {
            "buffer" : 0,
            "byteLength" : 43236,
            "byteOffset" : 496252
        },
        {
            "buffer" : 0,
            "byteLength" : 43236,
            "byteOffset" : 539488
        },
        {
            "buffer" : 0,
            "byteLength" : 28824,
            "byteOffset" : 582724
        },
        {
            "buffer" : 0,
            "byteLength" : 604,
            "byteOffset" : 611548
        },
        {
            "buffer" : 0,
            "byteLength" : 2416,
            "byteOffset" : 612152
        },
        {
            "buffer" : 0,
            "byteLength" : 2416,
            "byteOffset" : 614568
        },
        {
            "buffer" : 0,
            "byteLength" : 2416,
            "byteOffset" : 616984
        }
    ],
    "buffers" : [
        {
            "byteLength" : 619400,
            "uri" : "data:application/octet-stream;base64,"
        }
    ]
}
