{
    "asset" : {
        "generator" : "Khronos glTF Blender I/O v1.6.16",
        "version" : "2.0"
    },
    "extensionsUsed" : [
        "KHR_lights_punctual"
    ],
    "extensionsRequired" : [
        "KHR_lights_punctual"
    ],
    "extensions" : {
        "KHR_lights_punctual" : {
            "lights" : [
                {
                    "color" : [
                        1,
                        1,
                        1
                    ],
                    "intensity" : 0,
                    "type" : "point",
                    "name" : "Point"
                }
            ]
        }
    },
    "scene" : 0,
    "scenes" : [
        {
            "name" : "Scene",
            "nodes" : [
                0,
                2,
                3
            ]
        }
    ],
    "nodes" : [
        {
            "mesh" : 0,
            "name" : "jolka s igruskami",
            "rotation" : [
                0.7071068286895752,
                0,
                0,
                0.7071067094802856
            ]
        },
        {
            "extensions" : {
                "KHR_lights_punctual" : {
                    "light" : 0
                }
            },
            "name" : "Point_Orientation",
            "rotation" : [
                -0.7071067690849304,
                0,
                0,
                0.7071067690849304
            ]
        },
        {
            "children" : [
                1
            ],
            "name" : "Point"
        },
        {
            "mesh" : 1,
            "name" : "jolka s igruskami.001",
            "rotation" : [
                0.7071068286895752,
                0,
                0,
                0.7071067094802856
            ]
        }
    ],
    "animations" : [
        {
            "channels" : [
                {
                    "sampler" : 0,
                    "target" : {
                        "node" : 0,
                        "path" : "translation"
                    }
                },
                {
                    "sampler" : 1,
                    "target" : {
                        "node" : 0,
                        "path" : "rotation"
                    }
                },
                {
                    "sampler" : 2,
                    "target" : {
                        "node" : 0,
                        "path" : "scale"
                    }
                }
            ],
            "name" : "jolka s igruskamiAction",
            "samplers" : [
                {
                    "input" : 20,
                    "interpolation" : "LINEAR",
                    "output" : 21
                },
                {
                    "input" : 20,
                    "interpolation" : "LINEAR",
                    "output" : 22
                },
                {
                    "input" : 20,
                    "interpolation" : "LINEAR",
                    "output" : 23
                }
            ]
        },
        {
            "channels" : [
                {
                    "sampler" : 0,
                    "target" : {
                        "node" : 2,
                        "path" : "translation"
                    }
                }
            ],
            "name" : "PointAction.002",
            "samplers" : [
                {
                    "input" : 24,
                    "interpolation" : "LINEAR",
                    "output" : 25
                }
            ]
        },
        {
            "channels" : [
                {
                    "sampler" : 0,
                    "target" : {
                        "node" : 3,
                        "path" : "translation"
                    }
                },
                {
                    "sampler" : 1,
                    "target" : {
                        "node" : 3,
                        "path" : "rotation"
                    }
                },
                {
                    "sampler" : 2,
                    "target" : {
                        "node" : 3,
                        "path" : "scale"
                    }
                }
            ],
            "name" : "jolka s igruskami.001Action",
            "samplers" : [
                {
                    "input" : 20,
                    "interpolation" : "LINEAR",
                    "output" : 26
                },
                {
                    "input" : 20,
                    "interpolation" : "LINEAR",
                    "output" : 27
                },
                {
                    "input" : 20,
                    "interpolation" : "LINEAR",
                    "output" : 28
                }
            ]
        }
    ],
    "materials" : [
        {
            "doubleSided" : true,
            "name" : "wire_229154215",
            "pbrMetallicRoughness" : {
                "baseColorFactor" : [
                    0.8980000019073486,
                    0.6039000153541565,
                    0.8431000113487244,
                    1
                ],
                "metallicFactor" : 0,
                "roughnessFactor" : 0.8114382028579712
            }
        },
        {
            "doubleSided" : true,
            "name" : "wire_088088225",
            "pbrMetallicRoughness" : {
                "baseColorFactor" : [
                    0.3450999855995178,
                    0.3450999855995178,
                    0.8823999762535095,
                    1
                ],
                "metallicFactor" : 0,
                "roughnessFactor" : 0.8114382028579712
            }
        },
        {
            "doubleSided" : true,
            "name" : "wire_087224087",
            "pbrMetallicRoughness" : {
                "baseColorFactor" : [
                    0.34119999408721924,
                    0.8784000277519226,
                    0.34119999408721924,
                    1
                ],
                "metallicFactor" : 0,
                "roughnessFactor" : 0.8114382028579712
            }
        },
        {
            "doubleSided" : true,
            "name" : "wire_000000000",
            "pbrMetallicRoughness" : {
                "baseColorFactor" : [
                    0,
                    0,
                    0,
                    1
                ],
                "metallicFactor" : 0,
                "roughnessFactor" : 0.8114382028579712
            }
        },
        {
            "doubleSided" : true,
            "name" : "wire_006134006",
            "pbrMetallicRoughness" : {
                "baseColorFactor" : [
                    0.023499999195337296,
                    0.5254999995231628,
                    0.023499999195337296,
                    1
                ],
                "metallicFactor" : 0,
                "roughnessFactor" : 0.8114382028579712
            }
        }
    ],
    "meshes" : [
        {
            "name" : "jolka s igruskami",
            "primitives" : [
                {
                    "attributes" : {
                        "POSITION" : 0,
                        "NORMAL" : 1,
                        "TEXCOORD_0" : 2
                    },
                    "indices" : 3,
                    "material" : 0
                },
                {
                    "attributes" : {
                        "POSITION" : 4,
                        "NORMAL" : 5,
                        "TEXCOORD_0" : 6
                    },
                    "indices" : 7,
                    "material" : 1
                }
            ]
        },
        {
            "name" : "jolka s igruskami.001",
            "primitives" : [
                {
                    "attributes" : {
                        "POSITION" : 8,
                        "NORMAL" : 9,
                        "TEXCOORD_0" : 10
                    },
                    "indices" : 11,
                    "material" : 2
                },
                {
                    "attributes" : {
                        "POSITION" : 12,
                        "NORMAL" : 13,
                        "TEXCOORD_0" : 14
                    },
                    "indices" : 15,
                    "material" : 3
                },
                {
                    "attributes" : {
                        "POSITION" : 16,
                        "NORMAL" : 17,
                        "TEXCOORD_0" : 18
                    },
                    "indices" : 19,
                    "material" : 4
                }
            ]
        }
    ],
    "accessors" : [
        {
            "bufferView" : 0,
            "componentType" : 5126,
            "count" : 1254,
            "max" : [
                16.3981990814209,
                3.3004000186920166,
                -59.02389907836914
            ],
            "min" : [
                1.0348999500274658,
                -15.557100296020508,
                -86.46150207519531
            ],
            "type" : "VEC3"
        },
        {
            "bufferView" : 1,
            "componentType" : 5126,
            "count" : 1254,
            "type" : "VEC3"
        },
        {
            "bufferView" : 2,
            "componentType" : 5126,
            "count" : 1254,
            "type" : "VEC2"
        },
        {
            "bufferView" : 3,
            "componentType" : 5123,
            "count" : 7140,
            "type" : "SCALAR"
        },
        {
            "bufferView" : 4,
            "componentType" : 5126,
            "count" : 89,
            "max" : [
                16.41069984436035,
                -10.339400291442871,
                -73.21289825439453
            ],
            "min" : [
                13.70199966430664,
                -16.681900024414062,
                -96.23870086669922
            ],
            "type" : "VEC3"
        },
        {
            "bufferView" : 5,
            "componentType" : 5126,
            "count" : 89,
            "type" : "VEC3"
        },
        {
            "bufferView" : 6,
            "componentType" : 5126,
            "count" : 89,
            "type" : "VEC2"
        },
        {
            "bufferView" : 7,
            "componentType" : 5123,
            "count" : 468,
            "type" : "SCALAR"
        },
        {
            "bufferView" : 8,
            "componentType" : 5126,
            "count" : 48,
            "max" : [
                5.134200096130371,
                6.468400001525879,
                -79.10160064697266
            ],
            "min" : [
                1.4866000413894653,
                2.687700033187866,
                -80.65679931640625
            ],
            "type" : "VEC3"
        },
        {
            "bufferView" : 9,
            "componentType" : 5126,
            "count" : 48,
            "type" : "VEC3"
        },
        {
            "bufferView" : 10,
            "componentType" : 5126,
            "count" : 48,
            "type" : "VEC2"
        },
        {
            "bufferView" : 11,
            "componentType" : 5123,
            "count" : 228,
            "type" : "SCALAR"
        },
        {
            "bufferView" : 12,
            "componentType" : 5126,
            "count" : 216,
            "max" : [
                28.3341007232666,
                30.23590087890625,
                -13.730600357055664
            ],
            "min" : [
                -19.26810073852539,
                -17.4143009185791,
                -67.18710327148438
            ],
            "type" : "VEC3"
        },
        {
            "bufferView" : 13,
            "componentType" : 5126,
            "count" : 216,
            "type" : "VEC3"
        },
        {
            "bufferView" : 14,
            "componentType" : 5126,
            "count" : 216,
            "type" : "VEC2"
        },
        {
            "bufferView" : 15,
            "componentType" : 5123,
            "count" : 216,
            "type" : "SCALAR"
        },
        {
            "bufferView" : 16,
            "componentType" : 5126,
            "count" : 12379,
            "max" : [
                34.1870002746582,
                36.940101623535156,
                -0.3734999895095825
            ],
            "min" : [
                -28.339599609375,
                -25.542299270629883,
                -81.83560180664062
            ],
            "type" : "VEC3"
        },
        {
            "bufferView" : 17,
            "componentType" : 5126,
            "count" : 12379,
            "type" : "VEC3"
        },
        {
            "bufferView" : 18,
            "componentType" : 5126,
            "count" : 12379,
            "type" : "VEC2"
        },
        {
            "bufferView" : 19,
            "componentType" : 5123,
            "count" : 18426,
            "type" : "SCALAR"
        },
        {
            "bufferView" : 20,
            "componentType" : 5126,
            "count" : 41,
            "max" : [
                1.6666666666666667
            ],
            "min" : [
                0
            ],
            "type" : "SCALAR"
        },
        {
            "bufferView" : 21,
            "componentType" : 5126,
            "count" : 41,
            "type" : "VEC3"
        },
        {
            "bufferView" : 22,
            "componentType" : 5126,
            "count" : 41,
            "type" : "VEC4"
        },
        {
            "bufferView" : 23,
            "componentType" : 5126,
            "count" : 41,
            "type" : "VEC3"
        },
        {
            "bufferView" : 24,
            "componentType" : 5126,
            "count" : 70,
            "max" : [
                2.9166666666666665
            ],
            "min" : [
                0.041666666666666664
            ],
            "type" : "SCALAR"
        },
        {
            "bufferView" : 25,
            "componentType" : 5126,
            "count" : 70,
            "type" : "VEC3"
        },
        {
            "bufferView" : 26,
            "componentType" : 5126,
            "count" : 41,
            "type" : "VEC3"
        },
        {
            "bufferView" : 27,
            "componentType" : 5126,
            "count" : 41,
            "type" : "VEC4"
        },
        {
            "bufferView" : 28,
            "componentType" : 5126,
            "count" : 41,
            "type" : "VEC3"
        }
    ],
    "bufferViews" : [
        {
            "buffer" : 0,
            "byteLength" : 15048,
            "byteOffset" : 0
        },
        {
            "buffer" : 0,
            "byteLength" : 15048,
            "byteOffset" : 15048
        },
        {
            "buffer" : 0,
            "byteLength" : 10032,
            "byteOffset" : 30096
        },
        {
            "buffer" : 0,
            "byteLength" : 14280,
            "byteOffset" : 40128
        },
        {
            "buffer" : 0,
            "byteLength" : 1068,
            "byteOffset" : 54408
        },
        {
            "buffer" : 0,
            "byteLength" : 1068,
            "byteOffset" : 55476
        },
        {
            "buffer" : 0,
            "byteLength" : 712,
            "byteOffset" : 56544
        },
        {
            "buffer" : 0,
            "byteLength" : 936,
            "byteOffset" : 57256
        },
        {
            "buffer" : 0,
            "byteLength" : 576,
            "byteOffset" : 58192
        },
        {
            "buffer" : 0,
            "byteLength" : 576,
            "byteOffset" : 58768
        },
        {
            "buffer" : 0,
            "byteLength" : 384,
            "byteOffset" : 59344
        },
        {
            "buffer" : 0,
            "byteLength" : 456,
            "byteOffset" : 59728
        },
        {
            "buffer" : 0,
            "byteLength" : 2592,
            "byteOffset" : 60184
        },
        {
            "buffer" : 0,
            "byteLength" : 2592,
            "byteOffset" : 62776
        },
        {
            "buffer" : 0,
            "byteLength" : 1728,
            "byteOffset" : 65368
        },
        {
            "buffer" : 0,
            "byteLength" : 432,
            "byteOffset" : 67096
        },
        {
            "buffer" : 0,
            "byteLength" : 148548,
            "byteOffset" : 67528
        },
        {
            "buffer" : 0,
            "byteLength" : 148548,
            "byteOffset" : 216076
        },
        {
            "buffer" : 0,
            "byteLength" : 99032,
            "byteOffset" : 364624
        },
        {
            "buffer" : 0,
            "byteLength" : 36852,
            "byteOffset" : 463656
        },
        {
            "buffer" : 0,
            "byteLength" : 164,
            "byteOffset" : 500508
        },
        {
            "buffer" : 0,
            "byteLength" : 492,
            "byteOffset" : 500672
        },
        {
            "buffer" : 0,
            "byteLength" : 656,
            "byteOffset" : 501164
        },
        {
            "buffer" : 0,
            "byteLength" : 492,
            "byteOffset" : 501820
        },
        {
            "buffer" : 0,
            "byteLength" : 280,
            "byteOffset" : 502312
        },
        {
            "buffer" : 0,
            "byteLength" : 840,
            "byteOffset" : 502592
        },
        {
            "buffer" : 0,
            "byteLength" : 492,
            "byteOffset" : 503432
        },
        {
            "buffer" : 0,
            "byteLength" : 656,
            "byteOffset" : 503924
        },
        {
            "buffer" : 0,
            "byteLength" : 492,
            "byteOffset" : 504580
        }
    ],
    "buffers" : [
        {
            "byteLength" : 505072,
            "uri" : "data:application/octet-stream;base64,"
        }
    ]
}
