{
    "asset" : {
        "generator" : "Khronos glTF Blender I/O v1.6.16",
        "version" : "2.0"
    },
    "extensionsUsed" : [
        "KHR_lights_punctual"
    ],
    "extensionsRequired" : [
        "KHR_lights_punctual"
    ],
    "extensions" : {
        "KHR_lights_punctual" : {
            "lights" : [
                {
                    "color" : [
                        1,
                        1,
                        1
                    ],
                    "intensity" : 0,
                    "type" : "point",
                    "name" : "Point"
                }
            ]
        }
    },
    "scene" : 0,
    "scenes" : [
        {
            "name" : "Scene",
            "nodes" : [
                1,
                2,
                3,
                4,
                5
            ]
        }
    ],
    "nodes" : [
        {
            "extensions" : {
                "KHR_lights_punctual" : {
                    "light" : 0
                }
            },
            "name" : "Point_Orientation",
            "rotation" : [
                -0.7071067690849304,
                0,
                0,
                0.7071067690849304
            ]
        },
        {
            "children" : [
                0
            ],
            "name" : "Point"
        },
        {
            "mesh" : 0,
            "name" : "Sphere",
            "scale" : [
                15.689412117004395,
                15.689412117004395,
                15.689412117004395
            ],
            "translation" : [
                0,
                6,
                0
            ]
        },
        {
            "mesh" : 1,
            "name" : "Sphere.001",
            "scale" : [
                15.689412117004395,
                15.689412117004395,
                15.689412117004395
            ],
            "translation" : [
                0,
                6,
                0
            ]
        },
        {
            "mesh" : 2,
            "name" : "Sphere.002",
            "scale" : [
                15.689412117004395,
                15.689412117004395,
                15.689412117004395
            ],
            "translation" : [
                0,
                6,
                0
            ]
        },
        {
            "mesh" : 3,
            "name" : "Sphere.003",
            "scale" : [
                15.689412117004395,
                15.689412117004395,
                15.689412117004395
            ],
            "translation" : [
                0,
                6,
                0
            ]
        }
    ],
    "animations" : [
        {
            "channels" : [
                {
                    "sampler" : 0,
                    "target" : {
                        "node" : 1,
                        "path" : "translation"
                    }
                }
            ],
            "name" : "PointAction.002",
            "samplers" : [
                {
                    "input" : 15,
                    "interpolation" : "LINEAR",
                    "output" : 16
                }
            ]
        },
        {
            "channels" : [
                {
                    "sampler" : 0,
                    "target" : {
                        "node" : 3,
                        "path" : "rotation"
                    }
                },
                {
                    "sampler" : 1,
                    "target" : {
                        "node" : 3,
                        "path" : "scale"
                    }
                }
            ],
            "name" : "Sphere.001Action",
            "samplers" : [
                {
                    "input" : 17,
                    "interpolation" : "LINEAR",
                    "output" : 18
                },
                {
                    "input" : 17,
                    "interpolation" : "LINEAR",
                    "output" : 19
                }
            ]
        },
        {
            "channels" : [
                {
                    "sampler" : 0,
                    "target" : {
                        "node" : 4,
                        "path" : "rotation"
                    }
                },
                {
                    "sampler" : 1,
                    "target" : {
                        "node" : 4,
                        "path" : "scale"
                    }
                }
            ],
            "name" : "Sphere.002Action",
            "samplers" : [
                {
                    "input" : 17,
                    "interpolation" : "LINEAR",
                    "output" : 20
                },
                {
                    "input" : 17,
                    "interpolation" : "LINEAR",
                    "output" : 21
                }
            ]
        },
        {
            "channels" : [
                {
                    "sampler" : 0,
                    "target" : {
                        "node" : 5,
                        "path" : "rotation"
                    }
                },
                {
                    "sampler" : 1,
                    "target" : {
                        "node" : 5,
                        "path" : "scale"
                    }
                }
            ],
            "name" : "Sphere.003Action",
            "samplers" : [
                {
                    "input" : 17,
                    "interpolation" : "LINEAR",
                    "output" : 22
                },
                {
                    "input" : 17,
                    "interpolation" : "LINEAR",
                    "output" : 23
                }
            ]
        }
    ],
    "materials" : [
        {
            "doubleSided" : true,
            "name" : "Green",
            "pbrMetallicRoughness" : {
                "baseColorFactor" : [
                    0.12756405770778656,
                    0.8000000715255737,
                    0.01602933369576931,
                    1
                ],
                "metallicFactor" : 0,
                "roughnessFactor" : 0.5
            }
        }
    ],
    "meshes" : [
        {
            "name" : "Sphere",
            "primitives" : [
                {
                    "attributes" : {
                        "POSITION" : 0,
                        "NORMAL" : 1,
                        "TEXCOORD_0" : 2
                    },
                    "indices" : 3,
                    "material" : 0
                }
            ]
        },
        {
            "name" : "Sphere.001",
            "primitives" : [
                {
                    "attributes" : {
                        "POSITION" : 4,
                        "NORMAL" : 5,
                        "TEXCOORD_0" : 6
                    },
                    "indices" : 7,
                    "material" : 0
                }
            ]
        },
        {
            "name" : "Sphere.002",
            "primitives" : [
                {
                    "attributes" : {
                        "POSITION" : 8,
                        "NORMAL" : 9,
                        "TEXCOORD_0" : 10
                    },
                    "indices" : 11,
                    "material" : 0
                }
            ]
        },
        {
            "name" : "Sphere.003",
            "primitives" : [
                {
                    "attributes" : {
                        "POSITION" : 12,
                        "NORMAL" : 13,
                        "TEXCOORD_0" : 14
                    },
                    "indices" : 7,
                    "material" : 0
                }
            ]
        }
    ],
    "accessors" : [
        {
            "bufferView" : 0,
            "componentType" : 5126,
            "count" : 41,
            "max" : [
                0.9238795638084412,
                0.9238795042037964,
                0.9238795042037964
            ],
            "min" : [
                -0.9238793253898621,
                -0.3826833963394165,
                -0.9238795042037964
            ],
            "type" : "VEC3"
        },
        {
            "bufferView" : 1,
            "componentType" : 5126,
            "count" : 41,
            "type" : "VEC3"
        },
        {
            "bufferView" : 2,
            "componentType" : 5126,
            "count" : 41,
            "type" : "VEC2"
        },
        {
            "bufferView" : 3,
            "componentType" : 5123,
            "count" : 192,
            "type" : "SCALAR"
        },
        {
            "bufferView" : 4,
            "componentType" : 5126,
            "count" : 64,
            "max" : [
                0.7087710499763489,
                1.4892081022262573,
                0.6580045223236084
            ],
            "min" : [
                -0.6522872447967529,
                0.8829869627952576,
                -0.7177048921585083
            ],
            "type" : "VEC3"
        },
        {
            "bufferView" : 5,
            "componentType" : 5126,
            "count" : 64,
            "type" : "VEC3"
        },
        {
            "bufferView" : 6,
            "componentType" : 5126,
            "count" : 64,
            "type" : "VEC2"
        },
        {
            "bufferView" : 7,
            "componentType" : 5123,
            "count" : 96,
            "type" : "SCALAR"
        },
        {
            "bufferView" : 8,
            "componentType" : 5126,
            "count" : 80,
            "max" : [
                1.777552604675293,
                1.4794052839279175,
                1.638027548789978
            ],
            "min" : [
                -1.5662119388580322,
                -0.13464787602424622,
                -1.705735206604004
            ],
            "type" : "VEC3"
        },
        {
            "bufferView" : 9,
            "componentType" : 5126,
            "count" : 80,
            "type" : "VEC3"
        },
        {
            "bufferView" : 10,
            "componentType" : 5126,
            "count" : 80,
            "type" : "VEC2"
        },
        {
            "bufferView" : 11,
            "componentType" : 5123,
            "count" : 120,
            "type" : "SCALAR"
        },
        {
            "bufferView" : 12,
            "componentType" : 5126,
            "count" : 64,
            "max" : [
                0.7432467937469482,
                1.3920315504074097,
                0.690102756023407
            ],
            "min" : [
                -0.684029757976532,
                0.8829869627952576,
                -0.752537727355957
            ],
            "type" : "VEC3"
        },
        {
            "bufferView" : 13,
            "componentType" : 5126,
            "count" : 64,
            "type" : "VEC3"
        },
        {
            "bufferView" : 14,
            "componentType" : 5126,
            "count" : 64,
            "type" : "VEC2"
        },
        {
            "bufferView" : 15,
            "componentType" : 5126,
            "count" : 70,
            "max" : [
                2.9166666666666665
            ],
            "min" : [
                0.041666666666666664
            ],
            "type" : "SCALAR"
        },
        {
            "bufferView" : 16,
            "componentType" : 5126,
            "count" : 70,
            "type" : "VEC3"
        },
        {
            "bufferView" : 17,
            "componentType" : 5126,
            "count" : 101,
            "max" : [
                4.166666666666667
            ],
            "min" : [
                0
            ],
            "type" : "SCALAR"
        },
        {
            "bufferView" : 18,
            "componentType" : 5126,
            "count" : 101,
            "type" : "VEC4"
        },
        {
            "bufferView" : 19,
            "componentType" : 5126,
            "count" : 101,
            "type" : "VEC3"
        },
        {
            "bufferView" : 20,
            "componentType" : 5126,
            "count" : 101,
            "type" : "VEC4"
        },
        {
            "bufferView" : 21,
            "componentType" : 5126,
            "count" : 101,
            "type" : "VEC3"
        },
        {
            "bufferView" : 22,
            "componentType" : 5126,
            "count" : 101,
            "type" : "VEC4"
        },
        {
            "bufferView" : 23,
            "componentType" : 5126,
            "count" : 101,
            "type" : "VEC3"
        }
    ],
    "bufferViews" : [
        {
            "buffer" : 0,
            "byteLength" : 492,
            "byteOffset" : 0
        },
        {
            "buffer" : 0,
            "byteLength" : 492,
            "byteOffset" : 492
        },
        {
            "buffer" : 0,
            "byteLength" : 328,
            "byteOffset" : 984
        },
        {
            "buffer" : 0,
            "byteLength" : 384,
            "byteOffset" : 1312
        },
        {
            "buffer" : 0,
            "byteLength" : 768,
            "byteOffset" : 1696
        },
        {
            "buffer" : 0,
            "byteLength" : 768,
            "byteOffset" : 2464
        },
        {
            "buffer" : 0,
            "byteLength" : 512,
            "byteOffset" : 3232
        },
        {
            "buffer" : 0,
            "byteLength" : 192,
            "byteOffset" : 3744
        },
        {
            "buffer" : 0,
            "byteLength" : 960,
            "byteOffset" : 3936
        },
        {
            "buffer" : 0,
            "byteLength" : 960,
            "byteOffset" : 4896
        },
        {
            "buffer" : 0,
            "byteLength" : 640,
            "byteOffset" : 5856
        },
        {
            "buffer" : 0,
            "byteLength" : 240,
            "byteOffset" : 6496
        },
        {
            "buffer" : 0,
            "byteLength" : 768,
            "byteOffset" : 6736
        },
        {
            "buffer" : 0,
            "byteLength" : 768,
            "byteOffset" : 7504
        },
        {
            "buffer" : 0,
            "byteLength" : 512,
            "byteOffset" : 8272
        },
        {
            "buffer" : 0,
            "byteLength" : 280,
            "byteOffset" : 8784
        },
        {
            "buffer" : 0,
            "byteLength" : 840,
            "byteOffset" : 9064
        },
        {
            "buffer" : 0,
            "byteLength" : 404,
            "byteOffset" : 9904
        },
        {
            "buffer" : 0,
            "byteLength" : 1616,
            "byteOffset" : 10308
        },
        {
            "buffer" : 0,
            "byteLength" : 1212,
            "byteOffset" : 11924
        },
        {
            "buffer" : 0,
            "byteLength" : 1616,
            "byteOffset" : 13136
        },
        {
            "buffer" : 0,
            "byteLength" : 1212,
            "byteOffset" : 14752
        },
        {
            "buffer" : 0,
            "byteLength" : 1616,
            "byteOffset" : 15964
        },
        {
            "buffer" : 0,
            "byteLength" : 1212,
            "byteOffset" : 17580
        }
    ],
    "buffers" : [
        {
            "byteLength" : 18792,
            "uri" : "data:application/octet-stream;base64,"
        }
    ]
}
