{
    "asset" : {
        "generator" : "Khronos glTF Blender I/O v1.6.16",
        "version" : "2.0"
    },
    "scene" : 0,
    "scenes" : [
        {
            "name" : "Scene",
            "nodes" : [
                0,
                1,
                2,
                3
            ]
        }
    ],
    "nodes" : [
        {
            "mesh" : 0,
            "name" : "Plane",
            "scale" : [
                -2.5574746131896973,
                -2.5574746131896973,
                -2.5574746131896973
            ],
            "translation" : [
                -0.12124824523925781,
                0,
                0.10208892822265625
            ]
        },
        {
            "mesh" : 1,
            "name" : "Cube.032"
        },
        {
            "name" : "BezierCurve",
            "translation" : [
                -21.11773681640625,
                0,
                20.18309783935547
            ]
        },
        {
            "mesh" : 2,
            "name" : "jolka s igruskami.001",
            "rotation" : [
                0.7071068286895752,
                0,
                0,
                0.7071067094802856
            ]
        }
    ],
    "animations" : [
        {
            "channels" : [
                {
                    "sampler" : 0,
                    "target" : {
                        "node" : 3,
                        "path" : "translation"
                    }
                },
                {
                    "sampler" : 1,
                    "target" : {
                        "node" : 3,
                        "path" : "rotation"
                    }
                },
                {
                    "sampler" : 2,
                    "target" : {
                        "node" : 3,
                        "path" : "scale"
                    }
                }
            ],
            "name" : "jolka s igruskami.001Action",
            "samplers" : [
                {
                    "input" : 20,
                    "interpolation" : "LINEAR",
                    "output" : 21
                },
                {
                    "input" : 20,
                    "interpolation" : "LINEAR",
                    "output" : 22
                },
                {
                    "input" : 20,
                    "interpolation" : "LINEAR",
                    "output" : 23
                }
            ]
        }
    ],
    "materials" : [
        {
            "doubleSided" : true,
            "name" : "Green",
            "pbrMetallicRoughness" : {
                "baseColorFactor" : [
                    0.04241283982992172,
                    0.5214238166809082,
                    0,
                    1
                ],
                "metallicFactor" : 0,
                "roughnessFactor" : 0.5
            }
        },
        {
            "doubleSided" : true,
            "emissiveFactor" : [
                1,
                1,
                1
            ],
            "name" : "RandomColor",
            "pbrMetallicRoughness" : {}
        },
        {
            "doubleSided" : true,
            "name" : "wire_087224087",
            "pbrMetallicRoughness" : {
                "baseColorFactor" : [
                    0.34119999408721924,
                    0.8784000277519226,
                    0.34119999408721924,
                    1
                ],
                "metallicFactor" : 0,
                "roughnessFactor" : 0.8114382028579712
            }
        },
        {
            "doubleSided" : true,
            "name" : "wire_000000000",
            "pbrMetallicRoughness" : {
                "baseColorFactor" : [
                    0,
                    0,
                    0,
                    1
                ],
                "metallicFactor" : 0,
                "roughnessFactor" : 0.8114382028579712
            }
        },
        {
            "doubleSided" : true,
            "name" : "wire_006134006",
            "pbrMetallicRoughness" : {
                "baseColorFactor" : [
                    0.023499999195337296,
                    0.5254999995231628,
                    0.023499999195337296,
                    1
                ],
                "metallicFactor" : 0,
                "roughnessFactor" : 0.8114382028579712
            }
        }
    ],
    "meshes" : [
        {
            "name" : "Plane",
            "primitives" : [
                {
                    "attributes" : {
                        "POSITION" : 0,
                        "NORMAL" : 1,
                        "TEXCOORD_0" : 2
                    },
                    "indices" : 3,
                    "material" : 0
                }
            ]
        },
        {
            "name" : "Cube.088",
            "primitives" : [
                {
                    "attributes" : {
                        "POSITION" : 4,
                        "NORMAL" : 5,
                        "TEXCOORD_0" : 6
                    },
                    "indices" : 7,
                    "material" : 1
                }
            ]
        },
        {
            "name" : "jolka s igruskami.001",
            "primitives" : [
                {
                    "attributes" : {
                        "POSITION" : 8,
                        "NORMAL" : 9,
                        "TEXCOORD_0" : 10
                    },
                    "indices" : 11,
                    "material" : 2
                },
                {
                    "attributes" : {
                        "POSITION" : 12,
                        "NORMAL" : 13,
                        "TEXCOORD_0" : 14
                    },
                    "indices" : 15,
                    "material" : 3
                },
                {
                    "attributes" : {
                        "POSITION" : 16,
                        "NORMAL" : 17,
                        "TEXCOORD_0" : 18
                    },
                    "indices" : 19,
                    "material" : 4
                }
            ]
        }
    ],
    "accessors" : [
        {
            "bufferView" : 0,
            "componentType" : 5126,
            "count" : 46,
            "max" : [
                12.287071228027344,
                0,
                11.359052658081055
            ],
            "min" : [
                -12.199935913085938,
                0,
                -12.701584815979004
            ],
            "type" : "VEC3"
        },
        {
            "bufferView" : 1,
            "componentType" : 5126,
            "count" : 46,
            "type" : "VEC3"
        },
        {
            "bufferView" : 2,
            "componentType" : 5126,
            "count" : 46,
            "type" : "VEC2"
        },
        {
            "bufferView" : 3,
            "componentType" : 5123,
            "count" : 96,
            "type" : "SCALAR"
        },
        {
            "bufferView" : 4,
            "componentType" : 5126,
            "count" : 24,
            "max" : [
                1,
                1,
                1
            ],
            "min" : [
                -1,
                -1,
                -1
            ],
            "type" : "VEC3"
        },
        {
            "bufferView" : 5,
            "componentType" : 5126,
            "count" : 24,
            "type" : "VEC3"
        },
        {
            "bufferView" : 6,
            "componentType" : 5126,
            "count" : 24,
            "type" : "VEC2"
        },
        {
            "bufferView" : 7,
            "componentType" : 5123,
            "count" : 36,
            "type" : "SCALAR"
        },
        {
            "bufferView" : 8,
            "componentType" : 5126,
            "count" : 48,
            "max" : [
                2.1482536792755127,
                2.2026796340942383,
                -79.10160064697266
            ],
            "min" : [
                -1.499346375465393,
                -1.5780203342437744,
                -80.65679931640625
            ],
            "type" : "VEC3"
        },
        {
            "bufferView" : 9,
            "componentType" : 5126,
            "count" : 48,
            "type" : "VEC3"
        },
        {
            "bufferView" : 10,
            "componentType" : 5126,
            "count" : 48,
            "type" : "VEC2"
        },
        {
            "bufferView" : 11,
            "componentType" : 5123,
            "count" : 228,
            "type" : "SCALAR"
        },
        {
            "bufferView" : 12,
            "componentType" : 5126,
            "count" : 216,
            "max" : [
                25.348154067993164,
                25.97018051147461,
                -13.730600357055664
            ],
            "min" : [
                -22.254047393798828,
                -21.680021286010742,
                -67.18710327148438
            ],
            "type" : "VEC3"
        },
        {
            "bufferView" : 13,
            "componentType" : 5126,
            "count" : 216,
            "type" : "VEC3"
        },
        {
            "bufferView" : 14,
            "componentType" : 5126,
            "count" : 216,
            "type" : "VEC2"
        },
        {
            "bufferView" : 15,
            "componentType" : 5123,
            "count" : 216,
            "type" : "SCALAR"
        },
        {
            "bufferView" : 16,
            "componentType" : 5126,
            "count" : 12379,
            "max" : [
                31.201053619384766,
                32.674381256103516,
                -0.3734999895095825
            ],
            "min" : [
                -31.325546264648438,
                -29.808019638061523,
                -81.83560180664062
            ],
            "type" : "VEC3"
        },
        {
            "bufferView" : 17,
            "componentType" : 5126,
            "count" : 12379,
            "type" : "VEC3"
        },
        {
            "bufferView" : 18,
            "componentType" : 5126,
            "count" : 12379,
            "type" : "VEC2"
        },
        {
            "bufferView" : 19,
            "componentType" : 5123,
            "count" : 18426,
            "type" : "SCALAR"
        },
        {
            "bufferView" : 20,
            "componentType" : 5126,
            "count" : 41,
            "max" : [
                1.6666666666666667
            ],
            "min" : [
                0
            ],
            "type" : "SCALAR"
        },
        {
            "bufferView" : 21,
            "componentType" : 5126,
            "count" : 41,
            "type" : "VEC3"
        },
        {
            "bufferView" : 22,
            "componentType" : 5126,
            "count" : 41,
            "type" : "VEC4"
        },
        {
            "bufferView" : 23,
            "componentType" : 5126,
            "count" : 41,
            "type" : "VEC3"
        }
    ],
    "bufferViews" : [
        {
            "buffer" : 0,
            "byteLength" : 552,
            "byteOffset" : 0
        },
        {
            "buffer" : 0,
            "byteLength" : 552,
            "byteOffset" : 552
        },
        {
            "buffer" : 0,
            "byteLength" : 368,
            "byteOffset" : 1104
        },
        {
            "buffer" : 0,
            "byteLength" : 192,
            "byteOffset" : 1472
        },
        {
            "buffer" : 0,
            "byteLength" : 288,
            "byteOffset" : 1664
        },
        {
            "buffer" : 0,
            "byteLength" : 288,
            "byteOffset" : 1952
        },
        {
            "buffer" : 0,
            "byteLength" : 192,
            "byteOffset" : 2240
        },
        {
            "buffer" : 0,
            "byteLength" : 72,
            "byteOffset" : 2432
        },
        {
            "buffer" : 0,
            "byteLength" : 576,
            "byteOffset" : 2504
        },
        {
            "buffer" : 0,
            "byteLength" : 576,
            "byteOffset" : 3080
        },
        {
            "buffer" : 0,
            "byteLength" : 384,
            "byteOffset" : 3656
        },
        {
            "buffer" : 0,
            "byteLength" : 456,
            "byteOffset" : 4040
        },
        {
            "buffer" : 0,
            "byteLength" : 2592,
            "byteOffset" : 4496
        },
        {
            "buffer" : 0,
            "byteLength" : 2592,
            "byteOffset" : 7088
        },
        {
            "buffer" : 0,
            "byteLength" : 1728,
            "byteOffset" : 9680
        },
        {
            "buffer" : 0,
            "byteLength" : 432,
            "byteOffset" : 11408
        },
        {
            "buffer" : 0,
            "byteLength" : 148548,
            "byteOffset" : 11840
        },
        {
            "buffer" : 0,
            "byteLength" : 148548,
            "byteOffset" : 160388
        },
        {
            "buffer" : 0,
            "byteLength" : 99032,
            "byteOffset" : 308936
        },
        {
            "buffer" : 0,
            "byteLength" : 36852,
            "byteOffset" : 407968
        },
        {
            "buffer" : 0,
            "byteLength" : 164,
            "byteOffset" : 444820
        },
        {
            "buffer" : 0,
            "byteLength" : 492,
            "byteOffset" : 444984
        },
        {
            "buffer" : 0,
            "byteLength" : 656,
            "byteOffset" : 445476
        },
        {
            "buffer" : 0,
            "byteLength" : 492,
            "byteOffset" : 446132
        }
    ],
    "buffers" : [
        {
            "byteLength" : 446624,
            "uri" : "data:application/octet-stream;base64,"
        }
    ]
}
