<?xml version="1.0" encoding="UTF-8" standalone="no"?>
<svg
   version="1.1"
   width="200"
   height="200"
   id="svg448"
   sodipodi:docname="MainEgle.svg"
   inkscape:export-filename="C:\Users\Gr9Ag\Documents\Unreal Projects\LaisvesKelias\pics\MainEgle.png"
   inkscape:export-xdpi="491.51999"
   inkscape:export-ydpi="491.51999"
   inkscape:version="1.1 (c68e22c387, 2021-05-23)"
   xmlns:inkscape="http://www.inkscape.org/namespaces/inkscape"
   xmlns:sodipodi="http://sodipodi.sourceforge.net/DTD/sodipodi-0.dtd"
   xmlns="http://www.w3.org/2000/svg"
   xmlns:svg="http://www.w3.org/2000/svg">
  <defs
     id="defs452" />
  <sodipodi:namedview
     id="namedview450"
     pagecolor="#505050"
     bordercolor="#eeeeee"
     borderopacity="1"
     inkscape:pageshadow="0"
     inkscape:pageopacity="0"
     inkscape:pagecheckerboard="0"
     showgrid="false"
     inkscape:zoom="3.38"
     inkscape:cx="99.852071"
     inkscape:cy="100"
     inkscape:window-width="1920"
     inkscape:window-height="1017"
     inkscape:window-x="-8"
     inkscape:window-y="-8"
     inkscape:window-maximized="1"
     inkscape:current-layer="svg448" />
  <rect
     shape-rendering="optimizeSpeed"
     x="0"
     y="0"
     width="200"
     height="200"
     fill="#ffffff"
     id="rect2"
     sodipodi:insensitive="true" />
  <rect
     shape-rendering="optimizeSpeed"
     x="16"
     y="16"
     width="8"
     height="8"
     fill="black"
     id="rect4" />
  <rect
     shape-rendering="optimizeSpeed"
     x="24"
     y="16"
     width="8"
     height="8"
     fill="black"
     id="rect6" />
  <rect
     shape-rendering="optimizeSpeed"
     x="32"
     y="16"
     width="8"
     height="8"
     fill="black"
     id="rect8" />
  <rect
     shape-rendering="optimizeSpeed"
     x="40"
     y="16"
     width="8"
     height="8"
     fill="black"
     id="rect10" />
  <rect
     shape-rendering="optimizeSpeed"
     x="48"
     y="16"
     width="8"
     height="8"
     fill="black"
     id="rect12" />
  <rect
     shape-rendering="optimizeSpeed"
     x="56"
     y="16"
     width="8"
     height="8"
     fill="black"
     id="rect14" />
  <rect
     shape-rendering="optimizeSpeed"
     x="64"
     y="16"
     width="8"
     height="8"
     fill="black"
     id="rect16" />
  <rect
     shape-rendering="optimizeSpeed"
     x="80"
     y="24"
     width="8"
     height="8"
     fill="#000000"
     id="rect18" />
  <rect
     shape-rendering="optimizeSpeed"
     x="88"
     y="32"
     width="8"
     height="8"
     fill="#000000"
     id="rect20" />
  <rect
     shape-rendering="optimizeSpeed"
     x="112"
     y="24"
     width="8"
     height="8"
     fill="#000000"
     id="rect22" />
  <rect
     shape-rendering="optimizeSpeed"
     x="128"
     y="16"
     width="8"
     height="8"
     fill="black"
     id="rect24" />
  <rect
     shape-rendering="optimizeSpeed"
     x="136"
     y="16"
     width="8"
     height="8"
     fill="black"
     id="rect26" />
  <rect
     shape-rendering="optimizeSpeed"
     x="144"
     y="16"
     width="8"
     height="8"
     fill="black"
     id="rect28" />
  <rect
     shape-rendering="optimizeSpeed"
     x="152"
     y="16"
     width="8"
     height="8"
     fill="black"
     id="rect30" />
  <rect
     shape-rendering="optimizeSpeed"
     x="160"
     y="16"
     width="8"
     height="8"
     fill="black"
     id="rect32" />
  <rect
     shape-rendering="optimizeSpeed"
     x="168"
     y="16"
     width="8"
     height="8"
     fill="black"
     id="rect34" />
  <rect
     shape-rendering="optimizeSpeed"
     x="176"
     y="16"
     width="8"
     height="8"
     fill="black"
     id="rect36" />
  <rect
     shape-rendering="optimizeSpeed"
     x="16"
     y="24"
     width="8"
     height="8"
     fill="black"
     id="rect38" />
  <rect
     shape-rendering="optimizeSpeed"
     x="64"
     y="24"
     width="8"
     height="8"
     fill="black"
     id="rect40" />
  <rect
     shape-rendering="optimizeSpeed"
     x="88"
     y="40"
     width="8"
     height="8"
     fill="#000000"
     id="rect42" />
  <rect
     shape-rendering="optimizeSpeed"
     x="112"
     y="32"
     width="8"
     height="8"
     fill="#000000"
     id="rect44" />
  <rect
     shape-rendering="optimizeSpeed"
     x="128"
     y="24"
     width="8"
     height="8"
     fill="black"
     id="rect46" />
  <rect
     shape-rendering="optimizeSpeed"
     x="176"
     y="24"
     width="8"
     height="8"
     fill="black"
     id="rect48" />
  <rect
     shape-rendering="optimizeSpeed"
     x="16"
     y="32"
     width="8"
     height="8"
     fill="black"
     id="rect50" />
  <rect
     shape-rendering="optimizeSpeed"
     x="32"
     y="32"
     width="8"
     height="8"
     fill="black"
     id="rect52" />
  <rect
     shape-rendering="optimizeSpeed"
     x="40"
     y="32"
     width="8"
     height="8"
     fill="black"
     id="rect54" />
  <rect
     shape-rendering="optimizeSpeed"
     x="48"
     y="32"
     width="8"
     height="8"
     fill="black"
     id="rect56" />
  <rect
     shape-rendering="optimizeSpeed"
     x="64"
     y="32"
     width="8"
     height="8"
     fill="black"
     id="rect58" />
  <rect
     shape-rendering="optimizeSpeed"
     x="80"
     y="32"
     width="8"
     height="8"
     fill="black"
     id="rect60" />
  <rect
     shape-rendering="optimizeSpeed"
     x="96"
     y="32"
     width="8"
     height="8"
     fill="black"
     id="rect62" />
  <rect
     shape-rendering="optimizeSpeed"
     x="104"
     y="32"
     width="8"
     height="8"
     fill="#000000"
     id="rect64" />
  <rect
     shape-rendering="optimizeSpeed"
     x="128"
     y="32"
     width="8"
     height="8"
     fill="black"
     id="rect66" />
  <rect
     shape-rendering="optimizeSpeed"
     x="144"
     y="32"
     width="8"
     height="8"
     fill="black"
     id="rect68" />
  <rect
     shape-rendering="optimizeSpeed"
     x="152"
     y="32"
     width="8"
     height="8"
     fill="black"
     id="rect70" />
  <rect
     shape-rendering="optimizeSpeed"
     x="160"
     y="32"
     width="8"
     height="8"
     fill="black"
     id="rect72" />
  <rect
     shape-rendering="optimizeSpeed"
     x="176"
     y="32"
     width="8"
     height="8"
     fill="black"
     id="rect74" />
  <rect
     shape-rendering="optimizeSpeed"
     x="16"
     y="40"
     width="8"
     height="8"
     fill="black"
     id="rect76" />
  <rect
     shape-rendering="optimizeSpeed"
     x="32"
     y="40"
     width="8"
     height="8"
     fill="black"
     id="rect78" />
  <rect
     shape-rendering="optimizeSpeed"
     x="40"
     y="40"
     width="8"
     height="8"
     fill="black"
     id="rect80" />
  <rect
     shape-rendering="optimizeSpeed"
     x="48"
     y="40"
     width="8"
     height="8"
     fill="black"
     id="rect82" />
  <rect
     shape-rendering="optimizeSpeed"
     x="64"
     y="40"
     width="8"
     height="8"
     fill="black"
     id="rect84" />
  <rect
     shape-rendering="optimizeSpeed"
     x="80"
     y="40"
     width="8"
     height="8"
     fill="black"
     id="rect86" />
  <rect
     shape-rendering="optimizeSpeed"
     x="96"
     y="40"
     width="8"
     height="8"
     fill="#000000"
     id="rect88" />
  <rect
     shape-rendering="optimizeSpeed"
     x="128"
     y="40"
     width="8"
     height="8"
     fill="black"
     id="rect90" />
  <rect
     shape-rendering="optimizeSpeed"
     x="144"
     y="40"
     width="8"
     height="8"
     fill="black"
     id="rect92" />
  <rect
     shape-rendering="optimizeSpeed"
     x="152"
     y="40"
     width="8"
     height="8"
     fill="black"
     id="rect94" />
  <rect
     shape-rendering="optimizeSpeed"
     x="160"
     y="40"
     width="8"
     height="8"
     fill="black"
     id="rect96" />
  <rect
     shape-rendering="optimizeSpeed"
     x="176"
     y="40"
     width="8"
     height="8"
     fill="black"
     id="rect98" />
  <rect
     shape-rendering="optimizeSpeed"
     x="16"
     y="48"
     width="8"
     height="8"
     fill="black"
     id="rect100" />
  <rect
     shape-rendering="optimizeSpeed"
     x="32"
     y="48"
     width="8"
     height="8"
     fill="black"
     id="rect102" />
  <rect
     shape-rendering="optimizeSpeed"
     x="40"
     y="48"
     width="8"
     height="8"
     fill="black"
     id="rect104" />
  <rect
     shape-rendering="optimizeSpeed"
     x="48"
     y="48"
     width="8"
     height="8"
     fill="black"
     id="rect106" />
  <rect
     shape-rendering="optimizeSpeed"
     x="64"
     y="48"
     width="8"
     height="8"
     fill="black"
     id="rect108" />
  <rect
     shape-rendering="optimizeSpeed"
     x="96"
     y="24"
     width="8"
     height="8"
     fill="#000000"
     id="rect110" />
  <rect
     shape-rendering="optimizeSpeed"
     x="112"
     y="40"
     width="8"
     height="8"
     fill="#000000"
     id="rect112" />
  <rect
     shape-rendering="optimizeSpeed"
     x="104"
     y="40"
     width="8"
     height="8"
     fill="#000000"
     id="rect114" />
  <rect
     shape-rendering="optimizeSpeed"
     x="128"
     y="48"
     width="8"
     height="8"
     fill="black"
     id="rect116" />
  <rect
     shape-rendering="optimizeSpeed"
     x="144"
     y="48"
     width="8"
     height="8"
     fill="black"
     id="rect118" />
  <rect
     shape-rendering="optimizeSpeed"
     x="152"
     y="48"
     width="8"
     height="8"
     fill="black"
     id="rect120" />
  <rect
     shape-rendering="optimizeSpeed"
     x="160"
     y="48"
     width="8"
     height="8"
     fill="black"
     id="rect122" />
  <rect
     shape-rendering="optimizeSpeed"
     x="176"
     y="48"
     width="8"
     height="8"
     fill="black"
     id="rect124" />
  <rect
     shape-rendering="optimizeSpeed"
     x="16"
     y="56"
     width="8"
     height="8"
     fill="black"
     id="rect126" />
  <rect
     shape-rendering="optimizeSpeed"
     x="64"
     y="56"
     width="8"
     height="8"
     fill="black"
     id="rect128" />
  <rect
     shape-rendering="optimizeSpeed"
     x="128"
     y="56"
     width="8"
     height="8"
     fill="black"
     id="rect130" />
  <rect
     shape-rendering="optimizeSpeed"
     x="176"
     y="56"
     width="8"
     height="8"
     fill="black"
     id="rect132" />
  <rect
     shape-rendering="optimizeSpeed"
     x="16"
     y="64"
     width="8"
     height="8"
     fill="black"
     id="rect134" />
  <rect
     shape-rendering="optimizeSpeed"
     x="24"
     y="64"
     width="8"
     height="8"
     fill="black"
     id="rect136" />
  <rect
     shape-rendering="optimizeSpeed"
     x="32"
     y="64"
     width="8"
     height="8"
     fill="black"
     id="rect138" />
  <rect
     shape-rendering="optimizeSpeed"
     x="40"
     y="64"
     width="8"
     height="8"
     fill="black"
     id="rect140" />
  <rect
     shape-rendering="optimizeSpeed"
     x="48"
     y="64"
     width="8"
     height="8"
     fill="black"
     id="rect142" />
  <rect
     shape-rendering="optimizeSpeed"
     x="56"
     y="64"
     width="8"
     height="8"
     fill="black"
     id="rect144" />
  <rect
     shape-rendering="optimizeSpeed"
     x="64"
     y="64"
     width="8"
     height="8"
     fill="black"
     id="rect146" />
  <rect
     shape-rendering="optimizeSpeed"
     x="80"
     y="80"
     width="8"
     height="8"
     fill="#000000"
     id="rect148" />
  <rect
     shape-rendering="optimizeSpeed"
     x="104"
     y="80"
     width="8"
     height="8"
     fill="#000000"
     id="rect150" />
  <rect
     shape-rendering="optimizeSpeed"
     x="112"
     y="80"
     width="8"
     height="8"
     fill="#000000"
     id="rect152" />
  <rect
     shape-rendering="optimizeSpeed"
     x="128"
     y="64"
     width="8"
     height="8"
     fill="black"
     id="rect154" />
  <rect
     shape-rendering="optimizeSpeed"
     x="136"
     y="64"
     width="8"
     height="8"
     fill="black"
     id="rect156" />
  <rect
     shape-rendering="optimizeSpeed"
     x="144"
     y="64"
     width="8"
     height="8"
     fill="black"
     id="rect158" />
  <rect
     shape-rendering="optimizeSpeed"
     x="152"
     y="64"
     width="8"
     height="8"
     fill="black"
     id="rect160" />
  <rect
     shape-rendering="optimizeSpeed"
     x="160"
     y="64"
     width="8"
     height="8"
     fill="black"
     id="rect162" />
  <rect
     shape-rendering="optimizeSpeed"
     x="168"
     y="64"
     width="8"
     height="8"
     fill="black"
     id="rect164" />
  <rect
     shape-rendering="optimizeSpeed"
     x="176"
     y="64"
     width="8"
     height="8"
     fill="black"
     id="rect166" />
  <rect
     shape-rendering="optimizeSpeed"
     x="88"
     y="80"
     width="8"
     height="8"
     fill="#000000"
     id="rect168" />
  <rect
     shape-rendering="optimizeSpeed"
     x="96"
     y="80"
     width="8"
     height="8"
     fill="#000000"
     id="rect170" />
  <rect
     shape-rendering="optimizeSpeed"
     x="24"
     y="88"
     width="8"
     height="8"
     fill="#000000"
     id="rect172" />
  <rect
     shape-rendering="optimizeSpeed"
     x="32"
     y="72"
     width="8"
     height="8"
     fill="#000000"
     id="rect174" />
  <rect
     shape-rendering="optimizeSpeed"
     x="40"
     y="72"
     width="8"
     height="8"
     fill="#000000"
     id="rect176" />
  <rect
     shape-rendering="optimizeSpeed"
     x="48"
     y="72"
     width="8"
     height="8"
     fill="#000000"
     id="rect178" />
  <rect
     shape-rendering="optimizeSpeed"
     x="80"
     y="80"
     width="8"
     height="8"
     fill="black"
     id="rect182" />
  <rect
     shape-rendering="optimizeSpeed"
     x="96"
     y="80"
     width="8"
     height="8"
     fill="black"
     id="rect184" />
  <rect
     shape-rendering="optimizeSpeed"
     x="112"
     y="80"
     width="8"
     height="8"
     fill="#000000"
     id="rect186" />
  <rect
     shape-rendering="optimizeSpeed"
     x="144"
     y="72"
     width="8"
     height="8"
     fill="#000000"
     id="rect188" />
  <rect
     shape-rendering="optimizeSpeed"
     x="152"
     y="72"
     width="8"
     height="8"
     fill="#000000"
     id="rect190" />
  <rect
     shape-rendering="optimizeSpeed"
     x="160"
     y="72"
     width="8"
     height="8"
     fill="#000000"
     id="rect192" />
  <rect
     shape-rendering="optimizeSpeed"
     x="168"
     y="72"
     width="8"
     height="8"
     fill="#000000"
     id="rect194" />
  <rect
     shape-rendering="optimizeSpeed"
     x="32"
     y="80"
     width="8"
     height="8"
     fill="#000000"
     id="rect196" />
  <rect
     shape-rendering="optimizeSpeed"
     x="40"
     y="80"
     width="8"
     height="8"
     fill="#000000"
     id="rect198" />
  <rect
     shape-rendering="optimizeSpeed"
     x="48"
     y="80"
     width="8"
     height="8"
     fill="#000000"
     id="rect200" />
  <rect
     shape-rendering="optimizeSpeed"
     x="80"
     y="88"
     width="8"
     height="8"
     fill="#000000"
     id="rect202" />
  <rect
     shape-rendering="optimizeSpeed"
     x="96"
     y="88"
     width="8"
     height="8"
     fill="black"
     id="rect204" />
  <rect
     shape-rendering="optimizeSpeed"
     x="104"
     y="88"
     width="8"
     height="8"
     fill="#000000"
     id="rect206" />
  <rect
     shape-rendering="optimizeSpeed"
     x="144"
     y="80"
     width="8"
     height="8"
     fill="#000000"
     id="rect208" />
  <rect
     shape-rendering="optimizeSpeed"
     x="152"
     y="80"
     width="8"
     height="8"
     fill="#000000"
     id="rect210" />
  <rect
     shape-rendering="optimizeSpeed"
     x="160"
     y="80"
     width="8"
     height="8"
     fill="#000000"
     id="rect212" />
  <rect
     shape-rendering="optimizeSpeed"
     x="168"
     y="80"
     width="8"
     height="8"
     fill="#000000"
     id="rect214" />
  <rect
     shape-rendering="optimizeSpeed"
     x="176"
     y="72"
     width="8"
     height="8"
     fill="#000000"
     id="rect216" />
  <rect
     shape-rendering="optimizeSpeed"
     x="32"
     y="88"
     width="8"
     height="8"
     fill="#000000"
     id="rect218" />
  <rect
     shape-rendering="optimizeSpeed"
     x="40"
     y="88"
     width="8"
     height="8"
     fill="#000000"
     id="rect220" />
  <rect
     shape-rendering="optimizeSpeed"
     x="56"
     y="88"
     width="8"
     height="8"
     fill="#000000"
     id="rect222" />
  <rect
     shape-rendering="optimizeSpeed"
     x="88"
     y="96"
     width="8"
     height="8"
     fill="#000000"
     id="rect226" />
  <rect
     shape-rendering="optimizeSpeed"
     x="96"
     y="96"
     width="8"
     height="8"
     fill="black"
     id="rect228" />
  <rect
     shape-rendering="optimizeSpeed"
     x="112"
     y="96"
     width="8"
     height="8"
     fill="black"
     id="rect230" />
  <rect
     shape-rendering="optimizeSpeed"
     x="112"
     y="104"
     width="8"
     height="8"
     fill="#000000"
     id="rect232" />
  <rect
     shape-rendering="optimizeSpeed"
     x="136"
     y="72"
     width="8"
     height="8"
     fill="#000000"
     id="rect234" />
  <rect
     shape-rendering="optimizeSpeed"
     x="152"
     y="88"
     width="8"
     height="8"
     fill="#000000"
     id="rect236" />
  <rect
     shape-rendering="optimizeSpeed"
     x="160"
     y="88"
     width="8"
     height="8"
     fill="#000000"
     id="rect238" />
  <rect
     shape-rendering="optimizeSpeed"
     x="152"
     y="112"
     width="8"
     height="8"
     fill="#000000"
     id="rect240" />
  <rect
     shape-rendering="optimizeSpeed"
     x="40"
     y="96"
     width="8"
     height="8"
     fill="#000000"
     id="rect242" />
  <rect
     shape-rendering="optimizeSpeed"
     x="48"
     y="96"
     width="8"
     height="8"
     fill="#000000"
     id="rect244" />
  <rect
     shape-rendering="optimizeSpeed"
     x="48"
     y="88"
     width="8"
     height="8"
     fill="#000000"
     id="rect246" />
  <rect
     shape-rendering="optimizeSpeed"
     x="80"
     y="104"
     width="8"
     height="8"
     fill="#000000"
     id="rect248" />
  <rect
     shape-rendering="optimizeSpeed"
     x="96"
     y="104"
     width="8"
     height="8"
     fill="black"
     id="rect250" />
  <rect
     shape-rendering="optimizeSpeed"
     x="112"
     y="104"
     width="8"
     height="8"
     fill="black"
     id="rect252" />
  <rect
     shape-rendering="optimizeSpeed"
     x="136"
     y="80"
     width="8"
     height="8"
     fill="#000000"
     id="rect254" />
  <rect
     shape-rendering="optimizeSpeed"
     x="152"
     y="96"
     width="8"
     height="8"
     fill="#000000"
     id="rect256" />
  <rect
     shape-rendering="optimizeSpeed"
     x="168"
     y="88"
     width="8"
     height="8"
     fill="#000000"
     id="rect258" />
  <rect
     shape-rendering="optimizeSpeed"
     x="32"
     y="96"
     width="8"
     height="8"
     fill="#000000"
     id="rect260" />
  <rect
     shape-rendering="optimizeSpeed"
     x="40"
     y="104"
     width="8"
     height="8"
     fill="#000000"
     id="rect262" />
  <rect
     shape-rendering="optimizeSpeed"
     x="80"
     y="104"
     width="8"
     height="8"
     fill="#000000"
     id="rect268" />
  <rect
     shape-rendering="optimizeSpeed"
     x="88"
     y="104"
     width="8"
     height="8"
     fill="#000000"
     id="rect270" />
  <rect
     shape-rendering="optimizeSpeed"
     x="104"
     y="104"
     width="8"
     height="8"
     fill="#000000"
     id="rect272" />
  <rect
     shape-rendering="optimizeSpeed"
     x="144"
     y="96"
     width="8"
     height="8"
     fill="#000000"
     id="rect274" />
  <rect
     shape-rendering="optimizeSpeed"
     x="160"
     y="104"
     width="8"
     height="8"
     fill="#000000"
     id="rect276" />
  <rect
     shape-rendering="optimizeSpeed"
     x="152"
     y="104"
     width="8"
     height="8"
     fill="#000000"
     id="rect278" />
  <rect
     shape-rendering="optimizeSpeed"
     x="144"
     y="88"
     width="8"
     height="8"
     fill="#000000"
     id="rect280" />
  <rect
     shape-rendering="optimizeSpeed"
     x="96"
     y="104"
     width="8"
     height="8"
     fill="#000000"
     id="rect282" />
  <rect
     shape-rendering="optimizeSpeed"
     x="160"
     y="96"
     width="8"
     height="8"
     fill="#000000"
     id="rect284" />
  <rect
     shape-rendering="optimizeSpeed"
     x="168"
     y="144"
     width="8"
     height="8"
     fill="#000000"
     id="rect286" />
  <rect
     shape-rendering="optimizeSpeed"
     x="24"
     y="144"
     width="8"
     height="8"
     fill="#000000"
     id="rect288" />
  <rect
     shape-rendering="optimizeSpeed"
     x="64"
     y="152"
     width="8"
     height="8"
     fill="#000000"
     id="rect290" />
  <rect
     shape-rendering="optimizeSpeed"
     x="112"
     y="136"
     width="8"
     height="8"
     fill="#000000"
     id="rect292" />
  <rect
     shape-rendering="optimizeSpeed"
     x="64"
     y="144"
     width="8"
     height="8"
     fill="#000000"
     id="rect294" />
  <rect
     shape-rendering="optimizeSpeed"
     x="112"
     y="144"
     width="8"
     height="8"
     fill="#000000"
     id="rect296" />
  <rect
     shape-rendering="optimizeSpeed"
     x="127.99999"
     y="152"
     width="8"
     height="8"
     fill="#000000"
     id="rect298" />
  <rect
     shape-rendering="optimizeSpeed"
     x="176"
     y="80"
     width="8"
     height="8"
     fill="#000000"
     id="rect304" />
  <rect
     shape-rendering="optimizeSpeed"
     x="32"
     y="144"
     width="8"
     height="8"
     fill="#000000"
     id="rect306" />
  <rect
     shape-rendering="optimizeSpeed"
     x="127.99999"
     y="144"
     width="8"
     height="8"
     fill="#000000"
     id="rect308" />
  <rect
     shape-rendering="optimizeSpeed"
     x="88"
     y="128"
     width="8"
     height="8"
     fill="#000000"
     id="rect310" />
  <rect
     shape-rendering="optimizeSpeed"
     x="96"
     y="128"
     width="8"
     height="8"
     fill="#000000"
     id="rect312" />
  <rect
     shape-rendering="optimizeSpeed"
     x="104"
     y="128"
     width="8"
     height="8"
     fill="#000000"
     id="rect314" />
  <rect
     shape-rendering="optimizeSpeed"
     x="120"
     y="128"
     width="8"
     height="8"
     fill="#000000"
     id="rect318" />
  <rect
     shape-rendering="optimizeSpeed"
     x="40"
     y="152"
     width="8"
     height="8"
     fill="#000000"
     id="rect328" />
  <rect
     shape-rendering="optimizeSpeed"
     x="127.99999"
     y="136"
     width="8"
     height="8"
     fill="#000000"
     id="rect330" />
  <rect
     shape-rendering="optimizeSpeed"
     x="112"
     y="144"
     width="8"
     height="8"
     fill="#000000"
     id="rect332" />
  <rect
     shape-rendering="optimizeSpeed"
     x="112"
     y="152"
     width="8"
     height="8"
     fill="#000000"
     id="rect334" />
  <rect
     shape-rendering="optimizeSpeed"
     x="144"
     y="152"
     width="8"
     height="8"
     fill="#000000"
     id="rect336" />
  <rect
     shape-rendering="optimizeSpeed"
     x="160"
     y="144"
     width="8"
     height="8"
     fill="#000000"
     id="rect338" />
  <rect
     shape-rendering="optimizeSpeed"
     x="128"
     y="128"
     width="8"
     height="8"
     fill="#000000"
     id="rect340" />
  <rect
     shape-rendering="optimizeSpeed"
     x="112"
     y="160"
     width="8"
     height="8"
     fill="#000000"
     id="rect342" />
  <rect
     shape-rendering="optimizeSpeed"
     x="80"
     y="160"
     width="8"
     height="8"
     fill="#000000"
     id="rect344" />
  <rect
     shape-rendering="optimizeSpeed"
     x="96"
     y="144"
     width="8"
     height="8"
     fill="#000000"
     id="rect354" />
  <rect
     shape-rendering="optimizeSpeed"
     x="136"
     y="160"
     width="8"
     height="8"
     fill="#000000"
     id="rect356" />
  <rect
     shape-rendering="optimizeSpeed"
     x="48"
     y="152"
     width="8"
     height="8"
     fill="#000000"
     id="rect358" />
  <rect
     shape-rendering="optimizeSpeed"
     x="64"
     y="160"
     width="8"
     height="8"
     fill="#000000"
     id="rect360" />
  <rect
     shape-rendering="optimizeSpeed"
     x="80"
     y="128"
     width="8"
     height="8"
     fill="#000000"
     id="rect362" />
  <rect
     shape-rendering="optimizeSpeed"
     x="72"
     y="128"
     width="8"
     height="8"
     fill="#000000"
     id="rect364" />
  <rect
     shape-rendering="optimizeSpeed"
     x="136"
     y="120"
     width="8"
     height="8"
     fill="#000000"
     id="rect366" />
  <rect
     shape-rendering="optimizeSpeed"
     x="64"
     y="128"
     width="8"
     height="8"
     fill="#000000"
     id="rect368" />
  <rect
     shape-rendering="optimizeSpeed"
     x="96"
     y="152"
     width="8"
     height="8"
     fill="#000000"
     id="rect372" />
  <rect
     shape-rendering="optimizeSpeed"
     x="80"
     y="136"
     width="8"
     height="8"
     fill="#000000"
     id="rect376" />
  <rect
     shape-rendering="optimizeSpeed"
     x="56"
     y="160"
     width="8"
     height="8"
     fill="#000000"
     id="rect378" />
  <rect
     shape-rendering="optimizeSpeed"
     x="56"
     y="160"
     width="8"
     height="8"
     fill="#000000"
     id="rect380" />
  <rect
     shape-rendering="optimizeSpeed"
     x="56"
     y="120"
     width="8"
     height="8"
     fill="#000000"
     id="rect382" />
  <rect
     shape-rendering="optimizeSpeed"
     x="112"
     y="128"
     width="8"
     height="8"
     fill="#000000"
     id="rect384" />
  <rect
     shape-rendering="optimizeSpeed"
     x="104"
     y="160"
     width="8"
     height="8"
     fill="#000000"
     id="rect386" />
  <rect
     shape-rendering="optimizeSpeed"
     x="127.99999"
     y="168"
     width="8"
     height="8"
     fill="#000000"
     id="rect388" />
  <rect
     shape-rendering="optimizeSpeed"
     x="56"
     y="160"
     width="8"
     height="8"
     fill="#000000"
     id="rect400" />
  <rect
     shape-rendering="optimizeSpeed"
     x="64"
     y="168"
     width="8"
     height="8"
     fill="#000000"
     id="rect402" />
  <rect
     shape-rendering="optimizeSpeed"
     x="96"
     y="160"
     width="8"
     height="8"
     fill="#000000"
     id="rect404" />
  <rect
     shape-rendering="optimizeSpeed"
     x="152"
     y="152"
     width="8"
     height="8"
     fill="#000000"
     id="rect406" />
  <rect
     shape-rendering="optimizeSpeed"
     x="120"
     y="160"
     width="8"
     height="8"
     fill="#000000"
     id="rect408" />
  <rect
     shape-rendering="optimizeSpeed"
     x="96"
     y="136"
     width="8"
     height="8"
     fill="#000000"
     id="rect422" />
  <rect
     shape-rendering="optimizeSpeed"
     x="64"
     y="136"
     width="8"
     height="8"
     fill="#000000"
     id="rect424" />
  <rect
     shape-rendering="optimizeSpeed"
     x="80"
     y="144"
     width="8"
     height="8"
     fill="#000000"
     id="rect426" />
  <rect
     shape-rendering="optimizeSpeed"
     x="80"
     y="152"
     width="8"
     height="8"
     fill="#000000"
     id="rect428" />
  <rect
     shape-rendering="optimizeSpeed"
     x="72"
     y="160"
     width="8"
     height="8"
     fill="#000000"
     id="rect430" />
  <rect
     shape-rendering="optimizeSpeed"
     x="80"
     y="168"
     width="8"
     height="8"
     fill="#000000"
     id="rect432" />
  <rect
     shape-rendering="optimizeSpeed"
     x="96"
     y="168"
     width="8"
     height="8"
     fill="#000000"
     id="rect434" />
  <rect
     shape-rendering="optimizeSpeed"
     x="127.99999"
     y="160"
     width="8"
     height="8"
     fill="#000000"
     id="rect436" />
  <rect
     shape-rendering="optimizeSpeed"
     x="88"
     y="160"
     width="8"
     height="8"
     fill="#000000"
     id="rect438" />
  <rect
     shape-rendering="optimizeSpeed"
     x="112"
     y="168"
     width="8"
     height="8"
     fill="#000000"
     id="rect440" />
  <rect
     shape-rendering="optimizeSpeed"
     x="128"
     y="72"
     width="8"
     height="8"
     fill="#000000"
     id="rect442" />
</svg>
